<svg xmlns="http://www.w3.org/2000/svg" xmlns:xlink="http://www.w3.org/1999/xlink" width="350" zoomAndPan="magnify" viewBox="0 0 262.5 97.5" height="130" preserveAspectRatio="xMidYMid meet" version="1.0"><defs><g/></defs><g fill="#0092b1" fill-opacity="1"><g transform="translate(103.803991, 59.135812)"><g><path d="M 24.65625 0.671875 C 21.507812 0.671875 18.613281 0.132812 15.96875 -0.9375 C 13.320312 -2.007812 11.019531 -3.523438 9.0625 -5.484375 C 7.101562 -7.441406 5.585938 -9.753906 4.515625 -12.421875 C 3.441406 -15.085938 2.90625 -18.015625 2.90625 -21.203125 C 2.90625 -24.398438 3.441406 -27.332031 4.515625 -30 C 5.585938 -32.664062 7.101562 -34.976562 9.0625 -36.9375 C 11.019531 -38.894531 13.320312 -40.40625 15.96875 -41.46875 C 18.613281 -42.539062 21.507812 -43.078125 24.65625 -43.078125 C 27.925781 -43.078125 30.925781 -42.460938 33.65625 -41.234375 C 36.382812 -40.003906 38.707031 -38.265625 40.625 -36.015625 C 42.539062 -33.773438 43.90625 -31.125 44.71875 -28.0625 L 39.328125 -28.0625 C 38.191406 -31.125 36.332031 -33.523438 33.75 -35.265625 C 31.164062 -37.003906 28.132812 -37.875 24.65625 -37.875 C 21.507812 -37.875 18.703125 -37.164062 16.234375 -35.75 C 13.773438 -34.332031 11.847656 -32.363281 10.453125 -29.84375 C 9.054688 -27.320312 8.359375 -24.441406 8.359375 -21.203125 C 8.359375 -17.929688 9.054688 -15.039062 10.453125 -12.53125 C 11.847656 -10.03125 13.773438 -8.070312 16.234375 -6.65625 C 18.703125 -5.25 21.507812 -4.546875 24.65625 -4.546875 C 28.21875 -4.546875 31.3125 -5.460938 33.9375 -7.296875 C 36.5625 -9.140625 38.414062 -11.695312 39.5 -14.96875 L 44.953125 -14.96875 C 44.148438 -11.78125 42.78125 -9.015625 40.84375 -6.671875 C 38.90625 -4.328125 36.550781 -2.515625 33.78125 -1.234375 C 31.007812 0.0351562 27.96875 0.671875 24.65625 0.671875 Z M 24.65625 0.671875 "/></g></g></g><g fill="#0092b1" fill-opacity="1"><g transform="translate(147.375603, 59.135812)"><g/></g></g><g fill="#0092b1" fill-opacity="1"><g transform="translate(159.797637, 59.135812)"><g/></g></g><g fill="#0092b1" fill-opacity="1"><g transform="translate(172.219672, 59.135812)"><g/></g></g><g fill="#0092b1" fill-opacity="1"><g transform="translate(184.641706, 59.135812)"><g/></g></g><g fill="#0092b1" fill-opacity="1"><g transform="translate(197.065898, 59.135812)"><g><path d="M 20.109375 -32.90625 L 23.03125 -32.90625 L 23.03125 -28 L 19.6875 -28 C 16.695312 -28 14.394531 -27.085938 12.78125 -25.265625 C 11.164062 -23.453125 10.359375 -20.945312 10.359375 -17.75 L 10.359375 0 L 5.21875 0 L 5.21875 -32.71875 L 8.84375 -32.71875 L 9.6875 -27.75 C 10.863281 -29.40625 12.3125 -30.675781 14.03125 -31.5625 C 15.75 -32.457031 17.773438 -32.90625 20.109375 -32.90625 Z M 20.109375 -32.90625 "/></g></g></g><g fill="#0092b1" fill-opacity="1"><g transform="translate(217.001964, 59.135812)"><g><path d="M 35.8125 -16.234375 C 35.8125 -15.910156 35.789062 -15.597656 35.75 -15.296875 C 35.707031 -14.992188 35.6875 -14.679688 35.6875 -14.359375 L 7.75 -14.359375 C 8.15625 -11.328125 9.40625 -8.890625 11.5 -7.046875 C 13.601562 -5.210938 16.191406 -4.296875 19.265625 -4.296875 C 21.523438 -4.296875 23.546875 -4.800781 25.328125 -5.8125 C 27.109375 -6.820312 28.503906 -8.21875 29.515625 -10 L 34.90625 -10 C 33.53125 -6.601562 31.46875 -3.960938 28.71875 -2.078125 C 25.96875 -0.203125 22.816406 0.734375 19.265625 0.734375 C 16.117188 0.734375 13.28125 -0.0078125 10.75 -1.5 C 8.226562 -3 6.238281 -5.039062 4.78125 -7.625 C 3.332031 -10.21875 2.609375 -13.128906 2.609375 -16.359375 C 2.609375 -19.585938 3.332031 -22.492188 4.78125 -25.078125 C 6.238281 -27.671875 8.226562 -29.710938 10.75 -31.203125 C 13.28125 -32.703125 16.117188 -33.453125 19.265625 -33.453125 C 22.578125 -33.453125 25.472656 -32.679688 27.953125 -31.140625 C 30.441406 -29.609375 32.375 -27.539062 33.75 -24.9375 C 35.125 -22.332031 35.8125 -19.429688 35.8125 -16.234375 Z M 19.265625 -28.546875 C 16.316406 -28.546875 13.820312 -27.6875 11.78125 -25.96875 C 9.738281 -24.25 8.4375 -21.972656 7.875 -19.140625 L 30.59375 -19.140625 C 30.070312 -22.054688 28.78125 -24.351562 26.71875 -26.03125 C 24.65625 -27.707031 22.171875 -28.546875 19.265625 -28.546875 Z M 19.265625 -28.546875 "/></g></g></g><path fill="#242424" d="M 174.46875 44.738281 C 174.46875 44.738281 177.769531 37.640625 184.304688 38.976562 C 190.839844 40.308594 188.875 56.332031 167.652344 59.988281 C 167.652344 59.988281 181.917969 60.621094 191.683594 49.375 C 201.453125 38.132812 184.867188 24.847656 174.328125 37.289062 C 174.328125 37.289062 168.378906 29.214844 162.796875 33.464844 C 157.21875 37.71875 157.429688 50.578125 169.707031 55.519531 C 169.707031 55.519531 160.148438 43.882812 164.652344 39.300781 C 169.152344 34.71875 174.46875 44.738281 174.46875 44.738281 Z M 174.46875 44.738281 " fill-opacity="1" fill-rule="evenodd"/><path fill="#0092b1" d="M 172.09375 20.324219 C 172.167969 20.785156 172.210938 21.25 172.222656 21.710938 C 172.230469 22.175781 172.210938 22.628906 172.15625 23.078125 C 172.101562 23.523438 172.015625 23.953125 171.902344 24.363281 C 171.785156 24.777344 171.636719 25.167969 171.464844 25.53125 C 171.289062 25.894531 171.089844 26.222656 170.863281 26.523438 C 170.636719 26.824219 170.386719 27.085938 170.121094 27.3125 C 169.851562 27.535156 169.566406 27.71875 169.265625 27.859375 C 168.964844 28.003906 168.652344 28.097656 168.328125 28.152344 C 168.007812 28.203125 167.679688 28.210938 167.351562 28.171875 C 167.019531 28.132812 166.691406 28.050781 166.367188 27.921875 C 166.039062 27.792969 165.722656 27.621094 165.414062 27.410156 C 165.101562 27.195312 164.808594 26.945312 164.527344 26.65625 C 164.246094 26.367188 163.984375 26.042969 163.746094 25.6875 C 163.503906 25.335938 163.285156 24.953125 163.09375 24.546875 C 162.902344 24.140625 162.738281 23.714844 162.601562 23.273438 C 162.464844 22.832031 162.359375 22.378906 162.285156 21.917969 C 162.210938 21.457031 162.167969 20.992188 162.15625 20.53125 C 162.144531 20.066406 162.167969 19.613281 162.21875 19.167969 C 162.273438 18.71875 162.359375 18.289062 162.476562 17.878906 C 162.59375 17.464844 162.738281 17.078125 162.914062 16.714844 C 163.089844 16.347656 163.289062 16.019531 163.515625 15.71875 C 163.742188 15.417969 163.988281 15.15625 164.257812 14.929688 C 164.527344 14.707031 164.8125 14.523438 165.113281 14.382812 C 165.414062 14.238281 165.726562 14.144531 166.046875 14.089844 C 166.371094 14.039062 166.695312 14.03125 167.027344 14.070312 C 167.355469 14.109375 167.683594 14.191406 168.011719 14.320312 C 168.335938 14.449219 168.65625 14.621094 168.964844 14.832031 C 169.273438 15.046875 169.570312 15.296875 169.851562 15.585938 C 170.128906 15.875 170.390625 16.199219 170.632812 16.554688 C 170.875 16.910156 171.089844 17.289062 171.285156 17.695312 C 171.476562 18.101562 171.640625 18.527344 171.777344 18.96875 C 171.914062 19.410156 172.019531 19.863281 172.09375 20.324219 Z M 172.09375 20.324219 " fill-opacity="1" fill-rule="nonzero"/><path fill="#0092b1" d="M 177.546875 19.125 C 177.429688 19.625 177.347656 20.128906 177.300781 20.636719 C 177.253906 21.140625 177.242188 21.640625 177.265625 22.136719 C 177.292969 22.628906 177.351562 23.105469 177.449219 23.566406 C 177.542969 24.027344 177.675781 24.464844 177.839844 24.875 C 178.003906 25.289062 178.195312 25.667969 178.421875 26.011719 C 178.648438 26.359375 178.898438 26.664062 179.175781 26.933594 C 179.453125 27.199219 179.75 27.421875 180.070312 27.597656 C 180.390625 27.777344 180.722656 27.90625 181.074219 27.988281 C 181.421875 28.070312 181.777344 28.101562 182.144531 28.085938 C 182.507812 28.066406 182.875 28 183.242188 27.886719 C 183.609375 27.769531 183.972656 27.605469 184.328125 27.398438 C 184.683594 27.1875 185.023438 26.933594 185.355469 26.640625 C 185.683594 26.34375 185.992188 26.011719 186.285156 25.640625 C 186.578125 25.269531 186.84375 24.867188 187.085938 24.4375 C 187.328125 24.007812 187.539062 23.554688 187.722656 23.078125 C 187.90625 22.605469 188.054688 22.117188 188.171875 21.617188 C 188.289062 21.117188 188.371094 20.613281 188.417969 20.109375 C 188.464844 19.601562 188.476562 19.101562 188.453125 18.609375 C 188.425781 18.113281 188.367188 17.636719 188.269531 17.175781 C 188.175781 16.714844 188.042969 16.277344 187.878906 15.867188 C 187.714844 15.453125 187.523438 15.078125 187.296875 14.730469 C 187.070312 14.382812 186.820312 14.078125 186.542969 13.8125 C 186.265625 13.542969 185.96875 13.320312 185.648438 13.144531 C 185.328125 12.964844 184.996094 12.835938 184.644531 12.753906 C 184.296875 12.671875 183.941406 12.640625 183.574219 12.65625 C 183.210938 12.675781 182.84375 12.742188 182.476562 12.855469 C 182.109375 12.972656 181.746094 13.136719 181.390625 13.347656 C 181.035156 13.554688 180.695312 13.808594 180.363281 14.105469 C 180.035156 14.398438 179.722656 14.734375 179.433594 15.105469 C 179.140625 15.472656 178.875 15.875 178.632812 16.304688 C 178.390625 16.734375 178.179688 17.1875 177.996094 17.664062 C 177.8125 18.136719 177.664062 18.625 177.546875 19.125 Z M 177.546875 19.125 " fill-opacity="1" fill-rule="nonzero"/><path fill="#0092b1" d="M 193.046875 23.207031 C 192.835938 23.554688 192.652344 23.914062 192.492188 24.285156 C 192.332031 24.65625 192.203125 25.03125 192.101562 25.410156 C 192 25.789062 191.929688 26.164062 191.890625 26.535156 C 191.851562 26.90625 191.84375 27.269531 191.867188 27.617188 C 191.890625 27.96875 191.945312 28.300781 192.027344 28.617188 C 192.113281 28.933594 192.230469 29.226562 192.375 29.496094 C 192.519531 29.765625 192.6875 30.007812 192.886719 30.21875 C 193.085938 30.429688 193.304688 30.609375 193.546875 30.757812 C 193.792969 30.902344 194.054688 31.015625 194.332031 31.089844 C 194.613281 31.167969 194.90625 31.207031 195.210938 31.207031 C 195.515625 31.210938 195.828125 31.175781 196.148438 31.105469 C 196.46875 31.03125 196.789062 30.925781 197.109375 30.78125 C 197.429688 30.640625 197.746094 30.464844 198.054688 30.253906 C 198.367188 30.046875 198.664062 29.808594 198.953125 29.542969 C 199.238281 29.277344 199.511719 28.988281 199.765625 28.671875 C 200.019531 28.359375 200.25 28.027344 200.460938 27.679688 C 200.671875 27.332031 200.855469 26.96875 201.015625 26.597656 C 201.175781 26.230469 201.304688 25.855469 201.40625 25.476562 C 201.507812 25.097656 201.578125 24.722656 201.617188 24.351562 C 201.65625 23.976562 201.664062 23.617188 201.644531 23.265625 C 201.621094 22.914062 201.566406 22.582031 201.480469 22.265625 C 201.394531 21.949219 201.277344 21.65625 201.136719 21.390625 C 200.992188 21.121094 200.820312 20.878906 200.621094 20.667969 C 200.425781 20.453125 200.203125 20.273438 199.960938 20.128906 C 199.714844 19.980469 199.457031 19.871094 199.175781 19.792969 C 198.894531 19.71875 198.601562 19.679688 198.296875 19.675781 C 197.992188 19.675781 197.679688 19.710938 197.359375 19.78125 C 197.039062 19.851562 196.71875 19.960938 196.398438 20.101562 C 196.078125 20.246094 195.761719 20.421875 195.453125 20.628906 C 195.140625 20.839844 194.84375 21.078125 194.554688 21.34375 C 194.269531 21.609375 193.996094 21.898438 193.742188 22.210938 C 193.488281 22.527344 193.257812 22.855469 193.046875 23.207031 Z M 193.046875 23.207031 " fill-opacity="1" fill-rule="nonzero"/><path fill="#0092b1" d="M 157.371094 24.222656 C 157.582031 24.570312 157.769531 24.929688 157.925781 25.300781 C 158.085938 25.671875 158.214844 26.046875 158.316406 26.425781 C 158.417969 26.804688 158.488281 27.179688 158.527344 27.550781 C 158.570312 27.921875 158.578125 28.28125 158.554688 28.632812 C 158.53125 28.984375 158.476562 29.316406 158.390625 29.632812 C 158.304688 29.949219 158.191406 30.242188 158.046875 30.511719 C 157.902344 30.78125 157.730469 31.019531 157.53125 31.234375 C 157.335938 31.445312 157.113281 31.625 156.871094 31.773438 C 156.628906 31.917969 156.367188 32.03125 156.085938 32.105469 C 155.804688 32.183594 155.511719 32.222656 155.207031 32.222656 C 154.902344 32.226562 154.589844 32.191406 154.269531 32.117188 C 153.953125 32.046875 153.632812 31.941406 153.308594 31.796875 C 152.988281 31.652344 152.671875 31.476562 152.363281 31.269531 C 152.054688 31.0625 151.753906 30.824219 151.464844 30.558594 C 151.179688 30.292969 150.910156 30 150.652344 29.6875 C 150.398438 29.375 150.167969 29.042969 149.957031 28.695312 C 149.746094 28.34375 149.5625 27.984375 149.402344 27.613281 C 149.246094 27.242188 149.113281 26.867188 149.011719 26.488281 C 148.910156 26.113281 148.839844 25.738281 148.800781 25.363281 C 148.761719 24.992188 148.753906 24.632812 148.777344 24.28125 C 148.800781 23.929688 148.855469 23.597656 148.941406 23.28125 C 149.023438 22.964844 149.140625 22.671875 149.285156 22.402344 C 149.429688 22.132812 149.601562 21.894531 149.796875 21.683594 C 149.996094 21.46875 150.214844 21.289062 150.460938 21.144531 C 150.703125 20.996094 150.964844 20.886719 151.242188 20.808594 C 151.523438 20.734375 151.816406 20.695312 152.121094 20.691406 C 152.425781 20.691406 152.738281 20.722656 153.058594 20.796875 C 153.378906 20.867188 153.699219 20.976562 154.019531 21.117188 C 154.339844 21.261719 154.65625 21.4375 154.964844 21.644531 C 155.277344 21.855469 155.574219 22.089844 155.863281 22.359375 C 156.152344 22.625 156.421875 22.914062 156.675781 23.226562 C 156.929688 23.539062 157.160156 23.871094 157.371094 24.222656 Z M 157.371094 24.222656 " fill-opacity="1" fill-rule="nonzero"/><g fill="#242424" fill-opacity="1"><g transform="translate(3.293962, 58.541241)"><g><path d="M 21.140625 -42.421875 C 24.015625 -42.421875 26.570312 -41.78125 28.8125 -40.5 C 31.050781 -39.226562 32.835938 -37.492188 34.171875 -35.296875 C 35.503906 -33.097656 36.171875 -30.601562 36.171875 -27.8125 C 36.171875 -25.019531 35.515625 -22.523438 34.203125 -20.328125 C 32.890625 -18.128906 31.101562 -16.398438 28.84375 -15.140625 C 26.582031 -13.890625 24.015625 -13.265625 21.140625 -13.265625 L 14.0625 -13.265625 L 14.0625 0 L 4.84375 0 L 4.84375 -42.421875 Z M 20.78125 -21.75 C 22.601562 -21.75 24.066406 -22.320312 25.171875 -23.46875 C 26.285156 -24.625 26.84375 -26.070312 26.84375 -27.8125 C 26.84375 -29.59375 26.285156 -31.054688 25.171875 -32.203125 C 24.066406 -33.359375 22.601562 -33.9375 20.78125 -33.9375 L 14.0625 -33.9375 L 14.0625 -21.75 Z M 20.78125 -21.75 "/></g></g></g><g fill="#242424" fill-opacity="1"><g transform="translate(37.530929, 58.541241)"><g><path d="M 36 -16.484375 C 36 -15.628906 35.9375 -14.757812 35.8125 -13.875 L 11.09375 -13.875 C 11.457031 -11.65625 12.34375 -9.945312 13.75 -8.75 C 15.164062 -7.5625 16.945312 -6.96875 19.09375 -6.96875 C 20.625 -6.96875 21.992188 -7.300781 23.203125 -7.96875 C 24.421875 -8.632812 25.351562 -9.550781 26 -10.71875 L 35.328125 -10.71875 C 34.117188 -7.164062 32.054688 -4.335938 29.140625 -2.234375 C 26.234375 -0.140625 22.882812 0.90625 19.09375 0.90625 C 15.851562 0.90625 12.953125 0.148438 10.390625 -1.359375 C 7.828125 -2.878906 5.804688 -4.941406 4.328125 -7.546875 C 2.859375 -10.148438 2.125 -13.085938 2.125 -16.359375 C 2.125 -19.628906 2.859375 -22.566406 4.328125 -25.171875 C 5.804688 -27.773438 7.828125 -29.832031 10.390625 -31.34375 C 12.953125 -32.863281 15.851562 -33.625 19.09375 -33.625 C 22.4375 -33.625 25.378906 -32.847656 27.921875 -31.296875 C 30.472656 -29.742188 32.457031 -27.671875 33.875 -25.078125 C 35.289062 -22.492188 36 -19.628906 36 -16.484375 Z M 19.09375 -26.109375 C 17.113281 -26.109375 15.445312 -25.5625 14.09375 -24.46875 C 12.738281 -23.382812 11.816406 -21.875 11.328125 -19.9375 L 27.140625 -19.9375 C 25.847656 -24.050781 23.164062 -26.109375 19.09375 -26.109375 Z M 19.09375 -26.109375 "/></g></g></g><g fill="#242424" fill-opacity="1"><g transform="translate(72.131477, 58.541241)"><g><path d="M 20.234375 -7.875 L 24.234375 -7.875 L 24.234375 0 L 18 0 C 14.40625 0 11.566406 -1.035156 9.484375 -3.109375 C 7.398438 -5.191406 6.359375 -8.050781 6.359375 -11.6875 L 6.359375 -25.625 L 0.421875 -25.625 L 0.421875 -27.515625 L 13.390625 -41.265625 L 15.03125 -41.265625 L 15.03125 -32.71875 L 24.0625 -32.71875 L 24.0625 -25.625 L 15.203125 -25.625 L 15.203125 -12.84375 C 15.203125 -11.269531 15.632812 -10.046875 16.5 -9.171875 C 17.375 -8.304688 18.617188 -7.875 20.234375 -7.875 Z M 20.234375 -7.875 "/></g></g></g><g fill="#242424" fill-opacity="1"><g transform="translate(84.649504, 86.86824)"><g><path d="M 10.96875 -11 L 10.96875 0 L 9.828125 0 L 9.828125 -5.078125 L 2.953125 -5.078125 L 2.953125 0 L 1.796875 0 L 1.796875 -11 L 2.953125 -11 L 2.953125 -6.09375 L 9.828125 -6.09375 L 9.828125 -11 Z M 10.96875 -11 "/></g></g></g><g fill="#242424" fill-opacity="1"><g transform="translate(106.910102, 86.86824)"><g><path d="M 6.59375 0.09375 C 5.507812 0.09375 4.523438 -0.144531 3.640625 -0.625 C 2.753906 -1.113281 2.0625 -1.78125 1.5625 -2.625 C 1.0625 -3.476562 0.8125 -4.4375 0.8125 -5.5 C 0.8125 -6.550781 1.0625 -7.5 1.5625 -8.34375 C 2.0625 -9.195312 2.753906 -9.867188 3.640625 -10.359375 C 4.523438 -10.847656 5.507812 -11.09375 6.59375 -11.09375 C 7.6875 -11.09375 8.664062 -10.847656 9.53125 -10.359375 C 10.40625 -9.878906 11.09375 -9.210938 11.59375 -8.359375 C 12.101562 -7.503906 12.359375 -6.550781 12.359375 -5.5 C 12.359375 -4.4375 12.101562 -3.476562 11.59375 -2.625 C 11.09375 -1.769531 10.40625 -1.101562 9.53125 -0.625 C 8.664062 -0.144531 7.6875 0.09375 6.59375 0.09375 Z M 6.59375 -0.9375 C 7.46875 -0.9375 8.253906 -1.132812 8.953125 -1.53125 C 9.648438 -1.925781 10.195312 -2.46875 10.59375 -3.15625 C 11 -3.851562 11.203125 -4.632812 11.203125 -5.5 C 11.203125 -6.351562 11 -7.128906 10.59375 -7.828125 C 10.195312 -8.523438 9.648438 -9.066406 8.953125 -9.453125 C 8.253906 -9.847656 7.46875 -10.046875 6.59375 -10.046875 C 5.726562 -10.046875 4.941406 -9.847656 4.234375 -9.453125 C 3.523438 -9.066406 2.96875 -8.523438 2.5625 -7.828125 C 2.164062 -7.128906 1.96875 -6.351562 1.96875 -5.5 C 1.96875 -4.632812 2.164062 -3.851562 2.5625 -3.15625 C 2.96875 -2.46875 3.523438 -1.925781 4.234375 -1.53125 C 4.941406 -1.132812 5.726562 -0.9375 6.59375 -0.9375 Z M 6.59375 -0.9375 "/></g></g></g><g fill="#242424" fill-opacity="1"><g transform="translate(129.578675, 86.86824)"><g><path d="M 3.921875 -9.984375 L 0.0625 -9.984375 L 0.0625 -11 L 8.953125 -11 L 8.953125 -9.984375 L 5.09375 -9.984375 L 5.09375 0 L 3.921875 0 Z M 3.921875 -9.984375 "/></g></g></g><g fill="#242424" fill-opacity="1"><g transform="translate(148.08912, 86.86824)"><g><path d="M 9.5625 -1 L 9.5625 0 L 1.796875 0 L 1.796875 -11 L 9.328125 -11 L 9.328125 -9.984375 L 2.953125 -9.984375 L 2.953125 -6.078125 L 8.640625 -6.078125 L 8.640625 -5.09375 L 2.953125 -5.09375 L 2.953125 -1 Z M 9.5625 -1 "/></g></g></g><g fill="#242424" fill-opacity="1"><g transform="translate(168.090219, 86.86824)"><g><path d="M 1.796875 -11 L 2.953125 -11 L 2.953125 -1 L 9.109375 -1 L 9.109375 0 L 1.796875 0 Z M 1.796875 -11 "/></g></g></g></svg>